<svg width="156" height="33" viewBox="0 0 156 33" fill="none" xmlns="http://www.w3.org/2000/svg">
<path d="M20.5185 11.277H17.1946C17.0668 10.5668 16.8288 9.94176 16.4808 9.40199C16.1328 8.86222 15.7067 8.40412 15.2024 8.0277C14.6982 7.65128 14.1335 7.36719 13.5085 7.17543C12.8906 6.98366 12.2337 6.88778 11.5376 6.88778C10.2805 6.88778 9.15483 7.20384 8.16051 7.83594C7.1733 8.46804 6.39205 9.39489 5.81676 10.6165C5.24858 11.8381 4.96449 13.3295 4.96449 15.0909C4.96449 16.8665 5.24858 18.3651 5.81676 19.5866C6.39205 20.8082 7.17685 21.7315 8.17116 22.3565C9.16548 22.9815 10.2841 23.294 11.527 23.294C12.2159 23.294 12.8693 23.2017 13.4872 23.017C14.1122 22.8253 14.6768 22.5447 15.1811 22.1754C15.6854 21.8061 16.1115 21.3551 16.4595 20.8224C16.8146 20.2827 17.0597 19.6648 17.1946 18.9688L20.5185 18.9794C20.3409 20.0518 19.9964 21.0391 19.4851 21.9411C18.9808 22.8359 18.331 23.6101 17.5355 24.2635C16.7472 24.9098 15.8452 25.4105 14.8295 25.7656C13.8139 26.1207 12.706 26.2983 11.5057 26.2983C9.61648 26.2983 7.93324 25.8509 6.45597 24.956C4.97869 24.054 3.81392 22.7649 2.96165 21.0888C2.11648 19.4126 1.69389 17.4134 1.69389 15.0909C1.69389 12.7614 2.12003 10.7621 2.9723 9.09304C3.82457 7.4169 4.98935 6.13139 6.46662 5.23651C7.94389 4.33452 9.62358 3.88352 11.5057 3.88352C12.6634 3.88352 13.7429 4.05043 14.7443 4.38423C15.7528 4.71094 16.6584 5.19389 17.4609 5.8331C18.2635 6.4652 18.9276 7.23935 19.4531 8.15554C19.9787 9.06463 20.3338 10.1051 20.5185 11.277Z" fill="#004225"/>
<path d="M31.417 19.6665L35.5003 14.4165L39.0003 19.6665L42.5003 14.4165L45.417 19.0832H50.667" stroke="#004225" stroke-width="2.5" stroke-miterlimit="2" stroke-linecap="round" stroke-linejoin="round"/>
<path d="M50.6663 12.0832C50.6663 8.53936 47.7935 5.6665 44.2497 5.6665C42.0795 5.6665 40.1609 6.74386 38.9997 8.39289C37.8384 6.74386 35.9199 5.6665 33.7497 5.6665C30.2058 5.6665 27.333 8.53936 27.333 12.0832C27.333 18.4998 34.9163 24.3332 38.9997 25.6901C39.6959 25.4587 40.4939 25.0972 41.3388 24.6248" stroke="#004225" stroke-width="2.5" stroke-linecap="round" stroke-linejoin="round"/>
<path d="M57.1413 26V9.63636H60.2202V12.2358H60.3906C60.6889 11.3551 61.2145 10.6626 61.9673 10.1584C62.7273 9.64702 63.5866 9.39133 64.5455 9.39133C64.7443 9.39133 64.9787 9.39844 65.2486 9.41264C65.5256 9.42685 65.7422 9.4446 65.8984 9.46591V12.5128C65.7706 12.4773 65.5433 12.4382 65.2166 12.3956C64.8899 12.3459 64.5632 12.321 64.2365 12.321C63.4837 12.321 62.8125 12.4808 62.223 12.8004C61.6406 13.1129 61.179 13.5497 60.8381 14.1108C60.4972 14.6648 60.3267 15.2969 60.3267 16.0071V26H57.1413ZM75.1216 26.3303C73.5094 26.3303 72.1209 25.9858 70.9561 25.2969C69.7985 24.6009 68.9036 23.6243 68.2715 22.3672C67.6465 21.103 67.334 19.6222 67.334 17.9247C67.334 16.2486 67.6465 14.7713 68.2715 13.4929C68.9036 12.2145 69.7843 11.2166 70.9135 10.4993C72.0499 9.78196 73.378 9.4233 74.8979 9.4233C75.8212 9.4233 76.7161 9.57599 77.5826 9.88139C78.449 10.1868 79.2267 10.6662 79.9157 11.3196C80.6046 11.973 81.1479 12.8217 81.5456 13.8658C81.9434 14.9027 82.1422 16.1634 82.1422 17.6477V18.777H69.1344V16.3906H79.0208C79.0208 15.5526 78.8503 14.8104 78.5094 14.1641C78.1685 13.5107 77.6891 12.9957 77.0712 12.6193C76.4604 12.2429 75.7431 12.0547 74.9192 12.0547C74.0243 12.0547 73.2431 12.2749 72.5755 12.7152C71.915 13.1484 71.4036 13.7166 71.0414 14.4197C70.6863 15.1158 70.5087 15.8722 70.5087 16.6889V18.5533C70.5087 19.647 70.7005 20.5774 71.084 21.3445C71.4746 22.1115 72.0179 22.6974 72.714 23.1023C73.41 23.5 74.2232 23.6989 75.1536 23.6989C75.7573 23.6989 76.3077 23.6136 76.8049 23.4432C77.302 23.2656 77.7317 23.0028 78.0939 22.6548C78.4561 22.3068 78.7331 21.8771 78.9249 21.3658L81.9398 21.9091C81.6983 22.7969 81.2651 23.5746 80.6401 24.2422C80.0222 24.9027 79.2445 25.4176 78.307 25.7869C77.3766 26.1491 76.3148 26.3303 75.1216 26.3303ZM92.5373 32.4773C91.2376 32.4773 90.119 32.3068 89.1815 31.9659C88.2511 31.625 87.4911 31.174 86.9016 30.6129C86.3121 30.0518 85.8718 29.4375 85.5806 28.7699L88.3185 27.6406C88.5103 27.9531 88.766 28.2834 89.0856 28.6314C89.4123 28.9865 89.8526 29.2884 90.4066 29.5369C90.9677 29.7855 91.6886 29.9098 92.5692 29.9098C93.7766 29.9098 94.7745 29.6151 95.5629 29.0256C96.3512 28.4432 96.7454 27.5128 96.7454 26.2344V23.017H96.543C96.3512 23.3651 96.0742 23.7521 95.712 24.1783C95.3569 24.6044 94.8668 24.9737 94.2418 25.2862C93.6168 25.5987 92.8036 25.755 91.8022 25.755C90.5096 25.755 89.3448 25.4531 88.3079 24.8494C87.2781 24.2386 86.4613 23.3402 85.8576 22.1541C85.261 20.9609 84.9627 19.4943 84.9627 17.7543C84.9627 16.0142 85.2575 14.5227 85.8469 13.2798C86.4435 12.0369 87.2603 11.0852 88.2972 10.4247C89.3342 9.7571 90.5096 9.4233 91.8235 9.4233C92.8391 9.4233 93.6594 9.59375 94.2844 9.93466C94.9094 10.2685 95.396 10.6591 95.744 11.1065C96.0991 11.554 96.3725 11.9482 96.5643 12.2891H96.7987V9.63636H99.9201V26.3622C99.9201 27.7685 99.5934 28.9226 98.94 29.8246C98.2866 30.7266 97.4023 31.3942 96.2873 31.8274C95.1793 32.2607 93.9293 32.4773 92.5373 32.4773ZM92.5053 23.1129C93.4215 23.1129 94.1957 22.8999 94.8278 22.4737C95.467 22.0405 95.9499 21.4226 96.2766 20.62C96.6104 19.8104 96.7773 18.8409 96.7773 17.7116C96.7773 16.6108 96.614 15.6413 96.2873 14.8033C95.9606 13.9652 95.4812 13.3118 94.8491 12.843C94.217 12.3672 93.4357 12.1293 92.5053 12.1293C91.5465 12.1293 90.7475 12.3778 90.1083 12.875C89.4691 13.3651 88.9862 14.0327 88.6594 14.8778C88.3398 15.723 88.18 16.6676 88.18 17.7116C88.18 18.7841 88.3434 19.7251 88.6701 20.5348C88.9968 21.3445 89.4798 21.9766 90.119 22.4311C90.7653 22.8857 91.5607 23.1129 92.5053 23.1129ZM104.192 26V9.63636H107.377V26H104.192ZM105.801 7.11151C105.247 7.11151 104.771 6.92685 104.373 6.55753C103.983 6.18111 103.787 5.73366 103.787 5.2152C103.787 4.68963 103.983 4.24219 104.373 3.87287C104.771 3.49645 105.247 3.30824 105.801 3.30824C106.355 3.30824 106.827 3.49645 107.218 3.87287C107.615 4.24219 107.814 4.68963 107.814 5.2152C107.814 5.73366 107.615 6.18111 107.218 6.55753C106.827 6.92685 106.355 7.11151 105.801 7.11151ZM125.661 9.63636L119.727 26H116.318L110.374 9.63636H113.794L117.938 22.2287H118.108L122.242 9.63636H125.661ZM135.151 26.3303C133.539 26.3303 132.15 25.9858 130.985 25.2969C129.828 24.6009 128.933 23.6243 128.301 22.3672C127.676 21.103 127.363 19.6222 127.363 17.9247C127.363 16.2486 127.676 14.7713 128.301 13.4929C128.933 12.2145 129.814 11.2166 130.943 10.4993C132.079 9.78196 133.407 9.4233 134.927 9.4233C135.85 9.4233 136.745 9.57599 137.612 9.88139C138.478 10.1868 139.256 10.6662 139.945 11.3196C140.634 11.973 141.177 12.8217 141.575 13.8658C141.973 14.9027 142.172 16.1634 142.172 17.6477V18.777H129.164V16.3906H139.05C139.05 15.5526 138.88 14.8104 138.539 14.1641C138.198 13.5107 137.718 12.9957 137.1 12.6193C136.49 12.2429 135.772 12.0547 134.949 12.0547C134.054 12.0547 133.272 12.2749 132.605 12.7152C131.944 13.1484 131.433 13.7166 131.071 14.4197C130.716 15.1158 130.538 15.8722 130.538 16.6889V18.5533C130.538 19.647 130.73 20.5774 131.113 21.3445C131.504 22.1115 132.047 22.6974 132.743 23.1023C133.439 23.5 134.252 23.6989 135.183 23.6989C135.787 23.6989 136.337 23.6136 136.834 23.4432C137.331 23.2656 137.761 23.0028 138.123 22.6548C138.485 22.3068 138.762 21.8771 138.954 21.3658L141.969 21.9091C141.728 22.7969 141.294 23.5746 140.669 24.2422C140.051 24.9027 139.274 25.4176 138.336 25.7869C137.406 26.1491 136.344 26.3303 135.151 26.3303ZM145.706 26V9.63636H148.785V12.2358H148.955C149.253 11.3551 149.779 10.6626 150.532 10.1584C151.292 9.64702 152.151 9.39133 153.11 9.39133C153.309 9.39133 153.543 9.39844 153.813 9.41264C154.09 9.42685 154.307 9.4446 154.463 9.46591V12.5128C154.335 12.4773 154.108 12.4382 153.781 12.3956C153.454 12.3459 153.128 12.321 152.801 12.321C152.048 12.321 151.377 12.4808 150.787 12.8004C150.205 13.1129 149.743 13.5497 149.403 14.1108C149.062 14.6648 148.891 15.2969 148.891 16.0071V26H145.706Z" fill="#004225"/>
</svg>
