<svg width="190" height="74" viewBox="0 0 190 74" fill="none" xmlns="http://www.w3.org/2000/svg">
<path d="M39.5185 33.277H36.1946C36.0668 32.5668 35.8288 31.9418 35.4808 31.402C35.1328 30.8622 34.7067 30.4041 34.2024 30.0277C33.6982 29.6513 33.1335 29.3672 32.5085 29.1754C31.8906 28.9837 31.2337 28.8878 30.5376 28.8878C29.2805 28.8878 28.1548 29.2038 27.1605 29.8359C26.1733 30.468 25.392 31.3949 24.8168 32.6165C24.2486 33.8381 23.9645 35.3295 23.9645 37.0909C23.9645 38.8665 24.2486 40.3651 24.8168 41.5866C25.392 42.8082 26.1768 43.7315 27.1712 44.3565C28.1655 44.9815 29.2841 45.294 30.527 45.294C31.2159 45.294 31.8693 45.2017 32.4872 45.017C33.1122 44.8253 33.6768 44.5447 34.1811 44.1754C34.6854 43.8061 35.1115 43.3551 35.4595 42.8224C35.8146 42.2827 36.0597 41.6648 36.1946 40.9688L39.5185 40.9794C39.3409 42.0518 38.9964 43.0391 38.4851 43.9411C37.9808 44.8359 37.331 45.6101 36.5355 46.2635C35.7472 46.9098 34.8452 47.4105 33.8295 47.7656C32.8139 48.1207 31.706 48.2983 30.5057 48.2983C28.6165 48.2983 26.9332 47.8509 25.456 46.956C23.9787 46.054 22.8139 44.7649 21.9616 43.0888C21.1165 41.4126 20.6939 39.4134 20.6939 37.0909C20.6939 34.7614 21.12 32.7621 21.9723 31.093C22.8246 29.4169 23.9893 28.1314 25.4666 27.2365C26.9439 26.3345 28.6236 25.8835 30.5057 25.8835C31.6634 25.8835 32.7429 26.0504 33.7443 26.3842C34.7528 26.7109 35.6584 27.1939 36.4609 27.8331C37.2635 28.4652 37.9276 29.2393 38.4531 30.1555C38.9787 31.0646 39.3338 32.1051 39.5185 33.277Z" fill="white"/>
<path d="M49.7295 41.1665L53.3753 36.479L56.5003 41.1665L59.6253 36.479L62.2295 40.6457H66.917" stroke="white" stroke-width="2.5" stroke-miterlimit="2" stroke-linecap="round" stroke-linejoin="round"/>
<path d="M66.9163 34.3957C66.9163 31.2316 64.3513 28.6665 61.1872 28.6665C59.2495 28.6665 57.5365 29.6284 56.4997 31.1008C55.4629 29.6284 53.7498 28.6665 51.8122 28.6665C48.648 28.6665 46.083 31.2316 46.083 34.3957C46.083 40.1248 52.8538 45.3332 56.4997 46.5447C57.1213 46.3381 57.8338 46.0154 58.5882 45.5936" stroke="white" stroke-width="2.5" stroke-linecap="round" stroke-linejoin="round"/>
<path d="M73.1413 48V31.6364H76.2202V34.2358H76.3906C76.6889 33.3551 77.2145 32.6626 77.9673 32.1584C78.7273 31.647 79.5866 31.3913 80.5455 31.3913C80.7443 31.3913 80.9787 31.3984 81.2486 31.4126C81.5256 31.4268 81.7422 31.4446 81.8984 31.4659V34.5128C81.7706 34.4773 81.5433 34.4382 81.2166 34.3956C80.8899 34.3459 80.5632 34.321 80.2365 34.321C79.4837 34.321 78.8125 34.4808 78.223 34.8004C77.6406 35.1129 77.179 35.5497 76.8381 36.1108C76.4972 36.6648 76.3267 37.2969 76.3267 38.0071V48H73.1413ZM91.1216 48.3303C89.5094 48.3303 88.1209 47.9858 86.9561 47.2969C85.7985 46.6009 84.9036 45.6243 84.2715 44.3672C83.6465 43.103 83.334 41.6222 83.334 39.9247C83.334 38.2486 83.6465 36.7713 84.2715 35.4929C84.9036 34.2145 85.7843 33.2166 86.9135 32.4993C88.0499 31.782 89.378 31.4233 90.8979 31.4233C91.8212 31.4233 92.7161 31.576 93.5826 31.8814C94.449 32.1868 95.2267 32.6662 95.9157 33.3196C96.6046 33.973 97.1479 34.8217 97.5456 35.8658C97.9434 36.9027 98.1422 38.1634 98.1422 39.6477V40.777H85.1344V38.3906H95.0208C95.0208 37.5526 94.8503 36.8104 94.5094 36.1641C94.1685 35.5107 93.6891 34.9957 93.0712 34.6193C92.4604 34.2429 91.7431 34.0547 90.9192 34.0547C90.0243 34.0547 89.2431 34.2749 88.5755 34.7152C87.915 35.1484 87.4036 35.7166 87.0414 36.4197C86.6863 37.1158 86.5087 37.8722 86.5087 38.6889V40.5533C86.5087 41.647 86.7005 42.5774 87.084 43.3445C87.4746 44.1115 88.0179 44.6974 88.714 45.1023C89.41 45.5 90.2232 45.6989 91.1536 45.6989C91.7573 45.6989 92.3077 45.6136 92.8049 45.4432C93.302 45.2656 93.7317 45.0028 94.0939 44.6548C94.4561 44.3068 94.7331 43.8771 94.9249 43.3658L97.9398 43.9091C97.6983 44.7969 97.2651 45.5746 96.6401 46.2422C96.0222 46.9027 95.2445 47.4176 94.307 47.7869C93.3766 48.1491 92.3148 48.3303 91.1216 48.3303ZM108.537 54.4773C107.238 54.4773 106.119 54.3068 105.181 53.9659C104.251 53.625 103.491 53.174 102.902 52.6129C102.312 52.0518 101.872 51.4375 101.581 50.7699L104.319 49.6406C104.51 49.9531 104.766 50.2834 105.086 50.6314C105.412 50.9865 105.853 51.2884 106.407 51.5369C106.968 51.7855 107.689 51.9098 108.569 51.9098C109.777 51.9098 110.775 51.6151 111.563 51.0256C112.351 50.4432 112.745 49.5128 112.745 48.2344V45.017H112.543C112.351 45.3651 112.074 45.7521 111.712 46.1783C111.357 46.6044 110.867 46.9737 110.242 47.2862C109.617 47.5987 108.804 47.755 107.802 47.755C106.51 47.755 105.345 47.4531 104.308 46.8494C103.278 46.2386 102.461 45.3402 101.858 44.1541C101.261 42.9609 100.963 41.4943 100.963 39.7543C100.963 38.0142 101.257 36.5227 101.847 35.2798C102.444 34.0369 103.26 33.0852 104.297 32.4247C105.334 31.7571 106.51 31.4233 107.824 31.4233C108.839 31.4233 109.659 31.5938 110.284 31.9347C110.909 32.2685 111.396 32.6591 111.744 33.1065C112.099 33.554 112.373 33.9482 112.564 34.2891H112.799V31.6364H115.92V48.3622C115.92 49.7685 115.593 50.9226 114.94 51.8246C114.287 52.7266 113.402 53.3942 112.287 53.8274C111.179 54.2607 109.929 54.4773 108.537 54.4773ZM108.505 45.1129C109.422 45.1129 110.196 44.8999 110.828 44.4737C111.467 44.0405 111.95 43.4226 112.277 42.62C112.61 41.8104 112.777 40.8409 112.777 39.7116C112.777 38.6108 112.614 37.6413 112.287 36.8033C111.961 35.9652 111.481 35.3118 110.849 34.843C110.217 34.3672 109.436 34.1293 108.505 34.1293C107.547 34.1293 106.748 34.3778 106.108 34.875C105.469 35.3651 104.986 36.0327 104.659 36.8778C104.34 37.723 104.18 38.6676 104.18 39.7116C104.18 40.7841 104.343 41.7251 104.67 42.5348C104.997 43.3445 105.48 43.9766 106.119 44.4311C106.765 44.8857 107.561 45.1129 108.505 45.1129ZM120.192 48V31.6364H123.377V48H120.192ZM121.801 29.1115C121.247 29.1115 120.771 28.9268 120.373 28.5575C119.983 28.1811 119.787 27.7337 119.787 27.2152C119.787 26.6896 119.983 26.2422 120.373 25.8729C120.771 25.4964 121.247 25.3082 121.801 25.3082C122.355 25.3082 122.827 25.4964 123.218 25.8729C123.615 26.2422 123.814 26.6896 123.814 27.2152C123.814 27.7337 123.615 28.1811 123.218 28.5575C122.827 28.9268 122.355 29.1115 121.801 29.1115ZM141.661 31.6364L135.727 48H132.318L126.374 31.6364H129.794L133.938 44.2287H134.108L138.242 31.6364H141.661ZM151.151 48.3303C149.539 48.3303 148.15 47.9858 146.985 47.2969C145.828 46.6009 144.933 45.6243 144.301 44.3672C143.676 43.103 143.363 41.6222 143.363 39.9247C143.363 38.2486 143.676 36.7713 144.301 35.4929C144.933 34.2145 145.814 33.2166 146.943 32.4993C148.079 31.782 149.407 31.4233 150.927 31.4233C151.85 31.4233 152.745 31.576 153.612 31.8814C154.478 32.1868 155.256 32.6662 155.945 33.3196C156.634 33.973 157.177 34.8217 157.575 35.8658C157.973 36.9027 158.172 38.1634 158.172 39.6477V40.777H145.164V38.3906H155.05C155.05 37.5526 154.88 36.8104 154.539 36.1641C154.198 35.5107 153.718 34.9957 153.1 34.6193C152.49 34.2429 151.772 34.0547 150.949 34.0547C150.054 34.0547 149.272 34.2749 148.605 34.7152C147.944 35.1484 147.433 35.7166 147.071 36.4197C146.716 37.1158 146.538 37.8722 146.538 38.6889V40.5533C146.538 41.647 146.73 42.5774 147.113 43.3445C147.504 44.1115 148.047 44.6974 148.743 45.1023C149.439 45.5 150.252 45.6989 151.183 45.6989C151.787 45.6989 152.337 45.6136 152.834 45.4432C153.331 45.2656 153.761 45.0028 154.123 44.6548C154.485 44.3068 154.762 43.8771 154.954 43.3658L157.969 43.9091C157.728 44.7969 157.294 45.5746 156.669 46.2422C156.051 46.9027 155.274 47.4176 154.336 47.7869C153.406 48.1491 152.344 48.3303 151.151 48.3303ZM161.706 48V31.6364H164.785V34.2358H164.955C165.253 33.3551 165.779 32.6626 166.532 32.1584C167.292 31.647 168.151 31.3913 169.11 31.3913C169.309 31.3913 169.543 31.3984 169.813 31.4126C170.09 31.4268 170.307 31.4446 170.463 31.4659V34.5128C170.335 34.4773 170.108 34.4382 169.781 34.3956C169.454 34.3459 169.128 34.321 168.801 34.321C168.048 34.321 167.377 34.4808 166.787 34.8004C166.205 35.1129 165.743 35.5497 165.403 36.1108C165.062 36.6648 164.891 37.2969 164.891 38.0071V48H161.706Z" fill="white"/>
</svg>
